<?xml version="1.0" encoding="UTF-8" standalone="no"?>
<!-- Generator: Gravit.io -->
<svg xmlns="http://www.w3.org/2000/svg" style="isolation:isolate" viewBox="0 0 237.624 32" width="237.624pt" height="32pt"><path d=" M 13.756 6.112 L 13.756 14.066 L 13.756 14.066 Q 12.333 14.066 10.832 15.103 L 10.832 15.103 L 10.832 15.103 Q 9.331 16.139 9.315 17.068 L 9.315 17.068 L 9.315 26.043 L 0 26.043 L 0 6.809 L 9.315 6.809 L 9.315 8.867 L 9.315 8.867 Q 10.104 7.675 11.273 6.963 L 11.273 6.963 L 11.273 6.963 Q 12.441 6.251 13.756 6.112 L 13.756 6.112 Z  M 29.029 12.673 L 29.06 12.317 L 29.06 12.317 Q 29.06 10.956 27.791 10.956 L 27.791 10.956 L 27.791 10.956 Q 26.337 11.095 25.903 12.456 L 25.903 12.456 L 25.903 12.456 Q 25.687 13.106 25.602 13.965 L 25.602 13.965 L 25.602 13.965 Q 25.516 14.824 25.346 15.799 L 25.346 15.799 L 28.735 15.041 L 29.029 12.673 Z  M 26.971 19.358 L 26.971 19.358 L 26.971 19.358 Q 26.971 19.358 26.12 19.358 L 26.12 19.358 L 26.12 19.358 Q 25.718 19.358 25.346 19.327 L 25.346 19.327 L 25.346 19.327 Q 25.346 21.168 27.311 21.338 L 27.311 21.338 L 27.311 21.338 Q 27.853 21.385 28.364 21.385 L 28.364 21.385 L 28.364 21.385 Q 29.679 21.385 31.667 20.781 L 31.667 20.781 L 31.667 20.781 Q 33.656 20.178 35.234 18.816 L 35.234 18.816 L 36.193 23.629 L 36.193 23.629 Q 32.743 26.615 25.764 26.615 L 25.764 26.615 L 25.764 26.615 Q 21.756 26.615 18.878 24.279 L 18.878 24.279 L 18.878 24.279 Q 15.752 21.725 15.752 17.207 L 15.752 17.207 L 15.752 17.207 Q 15.752 13.803 17.516 11.095 L 17.516 11.095 L 17.516 11.095 Q 19.157 8.619 21.957 7.335 L 21.957 7.335 L 21.957 7.335 Q 24.758 6.05 28.008 6.05 L 28.008 6.05 L 28.008 6.05 Q 32.217 6.05 34.375 7.892 L 34.375 7.892 L 34.375 7.892 Q 36.534 9.733 36.526 12.441 L 36.526 12.441 L 36.526 12.441 Q 36.518 15.149 33.934 17.253 L 33.934 17.253 L 33.934 17.253 Q 31.35 19.358 26.971 19.358 Z  M 41.222 24.333 L 41.222 24.333 L 41.222 24.333 Q 39.985 23.18 39.25 21.424 L 39.25 21.424 L 39.25 21.424 Q 38.515 19.667 38.515 17.64 L 38.515 17.64 L 38.515 17.64 Q 38.515 15.613 38.917 14.128 L 38.917 14.128 L 38.917 14.128 Q 39.721 11.172 41.733 9.161 L 41.733 9.161 L 41.733 9.161 Q 42.692 8.17 43.868 7.489 L 43.868 7.489 L 43.868 7.489 Q 46.282 6.081 48.967 6.081 L 48.967 6.081 L 48.967 6.081 Q 51.652 6.081 53.679 7.861 L 53.679 7.861 L 53.679 7.861 Q 54.329 8.433 54.809 9.176 L 54.809 9.176 L 57.021 6.809 L 62.097 6.809 L 62.097 26.043 L 57.021 26.043 L 54.809 22.839 L 54.809 22.839 Q 52.271 26.584 47.118 26.6 L 47.118 26.6 L 47.118 26.6 Q 45.694 26.615 44.077 26.05 L 44.077 26.05 L 44.077 26.05 Q 42.46 25.485 41.222 24.333 Z  M 53.756 18.12 L 53.756 12.642 L 53.756 12.642 Q 53.199 12.317 52.426 12.317 L 52.426 12.317 L 52.426 12.317 Q 51.652 12.317 50.793 12.867 L 50.793 12.867 L 50.793 12.867 Q 49.934 13.416 49.253 14.251 L 49.253 14.251 L 49.253 14.251 Q 47.737 16.124 47.737 18.058 L 47.737 18.058 L 47.737 18.058 Q 47.737 19.42 48.573 19.977 L 48.573 19.977 L 48.573 19.977 Q 49.346 20.487 50.932 19.83 L 50.932 19.83 L 50.932 19.83 Q 52.518 19.172 53.756 18.12 L 53.756 18.12 Z  M 76.89 6.112 L 76.89 6.112 L 76.89 6.112 Q 78.731 6.112 80.681 6.716 L 80.681 6.716 L 80.681 0 L 89.687 0 L 89.687 26.043 L 83.946 26.043 L 81.733 22.839 L 81.733 22.839 Q 78.901 26.584 74.29 26.584 L 74.29 26.584 L 74.29 26.584 Q 70.592 26.584 67.83 24.07 L 67.83 24.07 L 67.83 24.07 Q 65.068 21.555 65.068 17.625 L 65.068 17.625 L 65.068 17.625 Q 65.068 13.694 66.677 11.157 L 66.677 11.157 L 66.677 11.157 Q 69.865 6.112 76.89 6.112 Z  M 80.681 18.151 L 80.681 12.642 L 80.681 12.642 Q 80.155 12.317 79.536 12.317 L 79.536 12.317 L 79.536 12.317 Q 78.917 12.317 78.344 12.565 L 78.344 12.565 L 78.344 12.565 Q 77.168 13.075 76.24 14.221 L 76.24 14.221 L 76.24 14.221 Q 75.745 14.778 75.404 15.412 L 75.404 15.412 L 75.404 15.412 Q 74.662 16.774 74.662 18.112 L 74.662 18.112 L 74.662 18.112 Q 74.662 19.451 75.482 19.977 L 75.482 19.977 L 75.482 19.977 Q 75.776 20.162 76.193 20.178 L 76.193 20.178 L 76.193 20.178 Q 78.205 20.178 80.681 18.151 L 80.681 18.151 Z  M 94.669 31.118 L 94.669 25.625 L 94.669 25.625 Q 96.309 26.074 98.785 26.074 L 98.785 26.074 L 98.785 26.074 Q 100.348 26.074 100.874 24.743 L 100.874 24.743 L 100.874 24.743 Q 101.029 24.34 101.029 23.907 L 101.029 23.907 L 101.029 23.907 Q 101.029 23.474 100.874 22.994 L 100.874 22.994 L 92.921 6.809 L 102.143 6.809 L 105.47 14.251 L 108.58 6.809 L 116.689 6.809 L 109.462 24.774 L 109.462 24.774 Q 108.023 28.286 106.29 29.957 L 106.29 29.957 L 106.29 29.957 Q 104.17 32 101.06 32 L 101.06 32 L 101.06 32 Q 96.805 32 94.669 31.118 L 94.669 31.118 Z " fill="rgb(255,255,255)"/><g opacity="0.5"><path d=" M 137.957 28.766 L 137.957 28.766 L 137.957 28.766 Q 135.883 29.323 132.278 29.323 L 132.278 29.323 L 132.278 29.323 Q 128.672 29.323 123.272 28.472 L 123.272 28.472 L 123.272 2.677 L 132.278 2.677 L 132.278 11.76 L 132.278 11.76 Q 134.274 9.872 137.121 9.362 L 137.121 9.362 L 137.121 9.362 Q 137.895 9.222 138.483 9.222 L 138.483 9.222 L 138.483 9.222 Q 142.521 9.222 144.765 11.93 L 144.765 11.93 L 144.765 11.93 Q 147.009 14.638 147.009 18.553 L 147.009 18.553 L 147.009 18.553 Q 147.009 20.642 145.817 22.901 L 145.817 22.901 L 145.817 22.901 Q 143.496 27.296 137.957 28.766 Z  M 136.734 15.66 L 136.734 15.66 L 136.734 15.66 Q 134.707 15.66 132.231 17.687 L 132.231 17.687 L 132.231 23.52 L 133.763 23.52 L 133.763 23.52 Q 135.311 23.52 136.788 21.64 L 136.788 21.64 L 136.788 21.64 Q 138.266 19.76 138.266 17.779 L 138.266 17.779 L 138.266 17.779 Q 138.266 16.371 137.446 15.845 L 137.446 15.845 L 137.446 15.845 Q 137.152 15.66 136.734 15.66 Z  M 163.813 8.789 L 163.813 16.743 L 163.813 16.743 Q 162.39 16.743 160.889 17.779 L 160.889 17.779 L 160.889 17.779 Q 159.388 18.816 159.372 19.745 L 159.372 19.745 L 159.372 28.72 L 150.057 28.72 L 150.057 9.485 L 159.372 9.485 L 159.372 11.544 L 159.372 11.544 Q 160.162 10.352 161.33 9.64 L 161.33 9.64 L 161.33 9.64 Q 162.498 8.928 163.813 8.789 L 163.813 8.789 Z  M 179.086 15.35 L 179.117 14.994 L 179.117 14.994 Q 179.117 13.632 177.848 13.632 L 177.848 13.632 L 177.848 13.632 Q 176.394 13.772 175.96 15.133 L 175.96 15.133 L 175.96 15.133 Q 175.744 15.783 175.659 16.642 L 175.659 16.642 L 175.659 16.642 Q 175.574 17.501 175.403 18.476 L 175.403 18.476 L 178.792 17.718 L 179.086 15.35 Z  M 177.028 22.035 L 177.028 22.035 L 177.028 22.035 Q 177.028 22.035 176.177 22.035 L 176.177 22.035 L 176.177 22.035 Q 175.775 22.035 175.403 22.004 L 175.403 22.004 L 175.403 22.004 Q 175.403 23.845 177.369 24.015 L 177.369 24.015 L 177.369 24.015 Q 177.91 24.062 178.421 24.062 L 178.421 24.062 L 178.421 24.062 Q 179.736 24.062 181.724 23.458 L 181.724 23.458 L 181.724 23.458 Q 183.713 22.855 185.291 21.493 L 185.291 21.493 L 186.251 26.306 L 186.251 26.306 Q 182.8 29.292 175.821 29.292 L 175.821 29.292 L 175.821 29.292 Q 171.813 29.292 168.935 26.956 L 168.935 26.956 L 168.935 26.956 Q 165.81 24.402 165.81 19.884 L 165.81 19.884 L 165.81 19.884 Q 165.81 16.48 167.574 13.772 L 167.574 13.772 L 167.574 13.772 Q 169.214 11.296 172.015 10.012 L 172.015 10.012 L 172.015 10.012 Q 174.815 8.727 178.065 8.727 L 178.065 8.727 L 178.065 8.727 Q 182.274 8.727 184.432 10.569 L 184.432 10.569 L 184.432 10.569 Q 186.591 12.41 186.583 15.118 L 186.583 15.118 L 186.583 15.118 Q 186.576 17.826 183.991 19.93 L 183.991 19.93 L 183.991 19.93 Q 181.407 22.035 177.028 22.035 Z  M 191.28 27.01 L 191.28 27.01 L 191.28 27.01 Q 190.042 25.857 189.307 24.101 L 189.307 24.101 L 189.307 24.101 Q 188.572 22.344 188.572 20.317 L 188.572 20.317 L 188.572 20.317 Q 188.572 18.29 188.974 16.805 L 188.974 16.805 L 188.974 16.805 Q 189.779 13.849 191.79 11.838 L 191.79 11.838 L 191.79 11.838 Q 192.75 10.847 193.926 10.166 L 193.926 10.166 L 193.926 10.166 Q 196.34 8.758 199.024 8.758 L 199.024 8.758 L 199.024 8.758 Q 201.709 8.758 203.736 10.538 L 203.736 10.538 L 203.736 10.538 Q 204.386 11.11 204.866 11.853 L 204.866 11.853 L 207.078 9.485 L 212.154 9.485 L 212.154 28.72 L 207.078 28.72 L 204.866 25.516 L 204.866 25.516 Q 202.328 29.261 197.175 29.277 L 197.175 29.277 L 197.175 29.277 Q 195.752 29.292 194.135 28.727 L 194.135 28.727 L 194.135 28.727 Q 192.518 28.162 191.28 27.01 Z  M 203.813 20.797 L 203.813 15.319 L 203.813 15.319 Q 203.256 14.994 202.483 14.994 L 202.483 14.994 L 202.483 14.994 Q 201.709 14.994 200.85 15.544 L 200.85 15.544 L 200.85 15.544 Q 199.991 16.093 199.311 16.928 L 199.311 16.928 L 199.311 16.928 Q 197.794 18.801 197.794 20.735 L 197.794 20.735 L 197.794 20.735 Q 197.794 22.097 198.63 22.654 L 198.63 22.654 L 198.63 22.654 Q 199.403 23.164 200.989 22.507 L 200.989 22.507 L 200.989 22.507 Q 202.576 21.849 203.813 20.797 L 203.813 20.797 Z  M 228.185 28.72 L 224.316 22.484 L 224.316 22.484 Q 224.1 22.839 224.053 23.01 L 224.053 23.01 L 224.053 28.72 L 215.883 28.72 L 215.883 2.677 L 223.899 2.677 L 223.899 15.226 L 227.55 9.485 L 236.665 9.485 L 230.738 17.888 L 237.624 28.72 L 228.185 28.72 Z " fill="rgb(255,255,255)"/></g></svg>
